<svg xmlns="http://www.w3.org/2000/svg" width="720" height="128" viewBox="0 0 720 128" fill="none">
  <g transform="translate(4 14)">
    <rect x="20" y="0" width="48" height="9" rx="2" fill="#EF4444"/>
    <rect x="40" y="9" width="8" height="11" fill="#EF4444"/>
    <path d="M44 26 C44 26 31 41 31 57 C31 69 36 77 44 77 C52 77 57 69 57 57 C57 41 44 26 44 26 Z" fill="#2563EB"/>
    <path d="M37 61 C37 55 39 51 44 49 C44 53 42 57 40 61 Z" fill="#FFFFFF" opacity="0.9"/>
    <path d="M20 18 C16 22 14 26 14 30" stroke="#EF4444" stroke-width="3.5" stroke-linecap="round"/>
    <path d="M16 22 C12 26 10 30 10 34" stroke="#EF4444" stroke-width="3.5" stroke-linecap="round"/>
    <path d="M12 26 C8 30 6 34 6 38" stroke="#EF4444" stroke-width="3.5" stroke-linecap="round"/>
    <path d="M68 18 C72 22 74 26 74 30" stroke="#EF4444" stroke-width="3.5" stroke-linecap="round"/>
    <path d="M72 22 C76 26 78 30 78 34" stroke="#EF4444" stroke-width="3.5" stroke-linecap="round"/>
    <path d="M76 26 C80 30 82 34 82 38" stroke="#EF4444" stroke-width="3.5" stroke-linecap="round"/>
  </g>
  <text x="104" y="79" font-family="Segoe UI, Arial, Helvetica, sans-serif" font-size="54" font-weight="700" fill="#0F172A">SprinkSnap</text>
  <rect x="468" y="34" width="62" height="38" rx="11" fill="#2563EB"/>
  <text x="499" y="61" text-anchor="middle" font-family="Segoe UI, Arial, Helvetica, sans-serif" font-size="23" font-weight="700" fill="#FFFFFF">AI</text>
</svg>
